<svg xmlns="http://www.w3.org/2000/svg" width="30.833" height="30.834" viewBox="0 0 30.833 30.834">
  <g id="Icon_feather-instagram" data-name="Icon feather-instagram" transform="translate(1.5 1.5)">
    <path id="Pfad_84" data-name="Pfad 84" d="M9.958,3H23.875a6.958,6.958,0,0,1,6.958,6.958V23.875a6.958,6.958,0,0,1-6.958,6.958H9.958A6.958,6.958,0,0,1,3,23.875V9.958A6.958,6.958,0,0,1,9.958,3Z" transform="translate(-3 -3)" fill="none" stroke="#fff" stroke-linecap="round" stroke-linejoin="round" stroke-width="3"/>
    <path id="Pfad_85" data-name="Pfad 85" d="M22.339,16.685a5.688,5.688,0,0,1-2.787,5.789,4.891,4.891,0,0,1-5.974-1.036A5.893,5.893,0,0,1,12.616,15a5.08,5.08,0,0,1,5.371-3A5.379,5.379,0,0,1,22.339,16.685Z" transform="translate(-3.25 -3.645)" fill="none" stroke="#fff" stroke-linecap="round" stroke-linejoin="round" stroke-width="3"/>
    <path id="Pfad_86" data-name="Pfad 86" d="M26.25,9.75h0" transform="translate(-4.679 -3.487)" fill="none" stroke="#fff" stroke-linecap="round" stroke-linejoin="round" stroke-width="3"/>
  </g>
</svg>
