<svg xmlns="http://www.w3.org/2000/svg" width="33.618" height="24.515" viewBox="0 0 33.618 24.515">
  <g id="Icon_feather-youtube" data-name="Icon feather-youtube" transform="translate(1.5 1.5)">
    <path id="Pfad_1019" data-name="Pfad 1019" d="M31.477,9.368a3.869,3.869,0,0,0-2.7-2.783C26.383,6,16.808,6,16.808,6S7.234,6,4.84,6.64a3.869,3.869,0,0,0-2.7,2.783,40.359,40.359,0,0,0-.64,7.362A40.359,40.359,0,0,0,2.14,24.2a3.869,3.869,0,0,0,2.7,2.672c2.394.64,11.968.64,11.968.64s9.575,0,11.968-.64a3.869,3.869,0,0,0,2.7-2.783,40.358,40.358,0,0,0,.64-7.306,40.358,40.358,0,0,0-.64-7.418Z" transform="translate(-1.499 -6)" fill="none" stroke="#fff" stroke-linecap="round" stroke-linejoin="round" stroke-width="3"/>
    <path id="Pfad_1020" data-name="Pfad 1020" d="M14.625,21.822l8-4.551-8-4.551Z" transform="translate(-2.447 -6.485)" fill="none" stroke="#fff" stroke-linecap="round" stroke-linejoin="round" stroke-width="3"/>
  </g>
</svg>
